<svg xmlns="http://www.w3.org/2000/svg" viewBox="0 0 237.16 153.13"><defs><style>.cls-1{fill:#ccc;}.cls-1,.cls-2,.cls-3,.cls-4{stroke:#231f20;stroke-miterlimit:10;}.cls-1,.cls-2{stroke-width:5px;}.cls-2{fill:#fff;}.cls-3,.cls-4,.cls-6{fill:#ed7979;}.cls-3{stroke-width:4px;}.cls-4{stroke-width:2px;}.cls-5{font-size:50px;font-family:ArialRoundedMTBold, Arial Rounded MT Bold;}.cls-7{letter-spacing:-0.02em;}</style></defs><title>Asset 2</title><g id="Layer_2" data-name="Layer 2"><g id="Lightbulb_Drawing" data-name="Lightbulb Drawing"><rect class="cls-1" x="174.16" y="110.58" width="38.6" height="15.15"/><path class="cls-2" d="M234.66,43.69A41.2,41.2,0,1,0,160.3,68.13a70.38,70.38,0,0,1,13.88,41.79v.66h38.56v-.65a71.19,71.19,0,0,1,14-42,41,41,0,0,0,7.91-24.28"/><path class="cls-1" d="M213,132.92a14.61,14.61,0,0,1-14.61,14.62h-9.75A14.61,14.61,0,0,1,174,132.92h0a14.62,14.62,0,0,1,14.62-14.62h9.75A14.62,14.62,0,0,1,213,132.92Z"/><path class="cls-1" d="M214.61,124.7a3.94,3.94,0,0,1-4.41,3.94l-33.47-3a4.87,4.87,0,0,1-4.42-4.72h0a3.94,3.94,0,0,1,4.41-3.94l33.48,3a4.88,4.88,0,0,1,4.41,4.73Z"/><path class="cls-1" d="M214.43,133.33a4,4,0,0,1-4.37,4l-33.19-3a4.92,4.92,0,0,1-4.38-4.83h0a4,4,0,0,1,4.37-4l33.19,3a4.92,4.92,0,0,1,4.38,4.83Z"/><path class="cls-3" d="M216.79,39.84a7.3,7.3,0,0,0-5.2-7,7.18,7.18,0,0,0,.06-.8A5.66,5.66,0,0,0,207,26.49,6.91,6.91,0,0,0,194.16,24a6.91,6.91,0,0,0-12.87,2.49,5.66,5.66,0,0,0-4.62,5.56,5.4,5.4,0,0,0,.07.8,7.29,7.29,0,0,0-3.13,12.09A7.29,7.29,0,0,0,176,56.77a4.92,4.92,0,0,0-.2,1.39,5,5,0,0,0,5,5l.45,0a7.3,7.3,0,0,0,12.9.2,7.3,7.3,0,0,0,12.9-.2l.45,0a5,5,0,0,0,5-5,4.92,4.92,0,0,0-.2-1.39,7.29,7.29,0,0,0,2.42-11.83A7.27,7.27,0,0,0,216.79,39.84Z"/><line class="cls-3" x1="194.2" y1="23.5" x2="194.2" y2="63.44"/><path class="cls-4" d="M181.89,52.07a5.67,5.67,0,0,1-.51,11.1c-.14,0-.28-.91-.42-.9"/><path class="cls-4" d="M178.09,40.82a3.88,3.88,0,0,1,0,1.18c-.3,2.17-1.73,2.93-3.91,2.63-.1,0-.77.73-.86.71"/><path class="cls-4" d="M189.38,50.15a4.1,4.1,0,0,1,.37,1.12,4,4,0,0,1-3.22,4.61l-.29,0"/><path class="cls-4" d="M208.37,45.27a4.28,4.28,0,0,1,.77-.89c1.66-1.44,3-1.13,4.37.58.18.23,1.36,0,1.42,0"/><path class="cls-4" d="M202.9,58.34a4.26,4.26,0,0,1,7.16-3.29,4.45,4.45,0,0,1,1.25,1.51"/><path class="cls-4" d="M195.07,43.83c0,1.09-.57,6.93.23,7.79a4.26,4.26,0,0,0,6.26-5.79,2.39,2.39,0,0,0-.22-.23"/><path class="cls-4" d="M199.09,37.51a3.75,3.75,0,1,1,6.5,2.41l-.19.19"/><path class="cls-4" d="M180,27.82c1-.22,1.83-.78,2.78-.24a4.22,4.22,0,0,1,1.55,5.76c-.05.09-.11.18-.17.27"/><path class="cls-4" d="M201.52,33.12a4.86,4.86,0,0,1,2.19-6.23c1.19-.62.85-.12,2,.25"/><path class="cls-4" d="M192.67,45.14c-1.94.14-7.7.76-7.77-6.57"/><text class="cls-5" transform="translate(0 98.58)"><tspan class="cls-6">c<tspan class="cls-7" x="29.71" y="0">r</tspan><tspan x="50.37" y="0">e</tspan><tspan class="cls-7" x="80.08" y="0">a</tspan><tspan x="108.54" y="0">te</tspan></tspan><tspan x="69.14" y="44">d</tspan><tspan class="cls-7" x="100.39" y="44">e</tspan><tspan x="128.86" y="44">v</tspan></text></g></g></svg>